<?xml version="1.0" encoding="UTF-8"?><svg id="Calque_1" xmlns="http://www.w3.org/2000/svg" viewBox="0 0 50 50"><defs><style>.cls-1{fill:#fff;}</style></defs><path class="cls-1" d="m31.07,19.72c.77,0,1.84-.4,2.94-1.71v1.51h2.54V5.86h-2.54v10.37c-.31.39-1,1.02-1.49,1.02-.54,0-.68-.37-.68-.92V5.86h-2.54v11.42c0,1.35.41,2.44,1.77,2.44Z"/><path class="cls-1" d="m19.77,16.12c0,2.41,1.26,3.66,3.72,3.66,2.04,0,3.65-1.37,3.65-3.66v-6.7c0-2.14-1.59-3.67-3.65-3.67-2.24,0-3.72,1.48-3.72,3.67v6.7Zm2.62-6.47c0-.75.35-1.3,1.06-1.3.78,0,1.11.54,1.11,1.3v6.36c0,.74-.38,1.29-1.06,1.29s-1.11-.57-1.11-1.29v-6.36Z"/><polygon class="cls-1" points="13.71 19.52 16.57 19.52 16.57 12.01 19.9 1 16.99 1 15.16 8.4 13.19 1 10.31 1 13.71 12.01 13.71 19.52"/><path class="cls-1" d="m39.97,22.63H10.03c-3.22,0-5.82,2.61-5.82,5.83v14.72c0,3.22,2.61,5.82,5.82,5.82h29.94c3.22,0,5.82-2.61,5.82-5.82v-14.72c0-3.22-2.61-5.83-5.82-5.83Zm-25.95,22.01h-2.72v-15.08h-2.82v-2.56h8.36v2.56h-2.82v15.08Zm9.69,0h-2.42v-1.44c-.45.53-.91.93-1.39,1.21-1.3.75-3.09.73-3.09-1.91v-10.88h2.42v9.97c0,.52.13.88.64.88.47,0,1.13-.6,1.42-.97v-9.88h2.42v13.01Zm9.31-2.7c0,1.61-.6,2.86-2.21,2.86-.89,0-1.62-.32-2.3-1.16v1h-2.44v-17.64h2.44v5.68c.54-.67,1.29-1.22,2.15-1.22,1.77,0,2.36,1.5,2.36,3.26v7.22Zm8.94-3.51h-4.63v2.45c0,.98.08,1.82,1.06,1.82s1.08-.69,1.08-1.82v-.9h2.49v.98c0,2.51-1.08,4.03-3.63,4.03-2.31,0-3.49-1.68-3.49-4.03v-5.84c0-2.26,1.49-3.83,3.67-3.83,2.32,0,3.44,1.47,3.44,3.83v3.31Z"/><path class="cls-1" d="m38.42,33.58c-.9,0-1.08.63-1.08,1.53v1.32h2.14v-1.32c0-.88-.19-1.53-1.06-1.53Z"/><path class="cls-1" d="m29.01,33.66c-.17.09-.34.22-.5.4v8.11c.2.21.39.37.57.46.39.2.97.22,1.24-.13.14-.18.21-.48.21-.9v-6.72c0-.44-.09-.77-.26-1-.29-.39-.84-.43-1.26-.21Z"/></svg>